G04 EAGLE Gerber X2 export*
%TF.Part,Single*%
%TF.FileFunction,Copper,L1,Top,Mixed*%
%TF.FilePolarity,Positive*%
%TF.GenerationSoftware,Autodesk,EAGLE,8.6.3*%
%TF.CreationDate,2018-04-24T10:21:06Z*%
G75*
%MOMM*%
%FSLAX34Y34*%
%LPD*%
%AMOC8*
5,1,8,0,0,1.08239X$1,22.5*%
G01*
%ADD10C,1.530000*%
%ADD11C,4.318000*%
%ADD12C,1.879600*%
%ADD13R,1.000000X1.250000*%
%ADD14R,1.200000X0.600000*%
%ADD15C,0.406400*%
%ADD16C,0.756400*%


D10*
X76200Y660400D03*
X76200Y685800D03*
X101600Y660400D03*
X101600Y685800D03*
X127000Y660400D03*
X127000Y685800D03*
X152400Y660400D03*
X152400Y685800D03*
X177800Y660400D03*
X177800Y685800D03*
X203200Y660400D03*
X203200Y685800D03*
X228600Y660400D03*
X228600Y685800D03*
X254000Y660400D03*
X254000Y685800D03*
X406400Y660400D03*
X406400Y685800D03*
X431800Y660400D03*
X431800Y685800D03*
X457200Y660400D03*
X457200Y685800D03*
X482600Y660400D03*
X482600Y685800D03*
X508000Y660400D03*
X508000Y685800D03*
X533400Y660400D03*
X533400Y685800D03*
X558800Y660400D03*
X558800Y685800D03*
X584200Y660400D03*
X584200Y685800D03*
D11*
X723900Y137000D03*
X723900Y77000D03*
X770900Y107000D03*
D10*
X101600Y25400D03*
X101600Y50800D03*
X127000Y25400D03*
X127000Y50800D03*
X152400Y25400D03*
X152400Y50800D03*
X177800Y25400D03*
X177800Y50800D03*
X203200Y25400D03*
X203200Y50800D03*
X228600Y25400D03*
X228600Y50800D03*
X254000Y25400D03*
X254000Y50800D03*
X279400Y25400D03*
X279400Y50800D03*
X431800Y25400D03*
X431800Y50800D03*
X457200Y25400D03*
X457200Y50800D03*
X482600Y25400D03*
X482600Y50800D03*
X508000Y25400D03*
X508000Y50800D03*
X533400Y25400D03*
X533400Y50800D03*
X558800Y25400D03*
X558800Y50800D03*
X584200Y25400D03*
X584200Y50800D03*
X609600Y25400D03*
X609600Y50800D03*
D12*
X647700Y673100D03*
X317500Y673100D03*
D13*
X136050Y552450D03*
X156050Y552450D03*
D14*
X60900Y577850D03*
X60900Y565150D03*
X60900Y552450D03*
X60900Y539750D03*
X116900Y539750D03*
X116900Y552450D03*
X116900Y565150D03*
X116900Y577850D03*
D13*
X301150Y552450D03*
X321150Y552450D03*
D14*
X226000Y577850D03*
X226000Y565150D03*
X226000Y552450D03*
X226000Y539750D03*
X282000Y539750D03*
X282000Y552450D03*
X282000Y565150D03*
X282000Y577850D03*
D13*
X466250Y552450D03*
X486250Y552450D03*
D14*
X391100Y577850D03*
X391100Y565150D03*
X391100Y552450D03*
X391100Y539750D03*
X447100Y539750D03*
X447100Y552450D03*
X447100Y565150D03*
X447100Y577850D03*
D13*
X631350Y552450D03*
X651350Y552450D03*
D14*
X556200Y577850D03*
X556200Y565150D03*
X556200Y552450D03*
X556200Y539750D03*
X612200Y539750D03*
X612200Y552450D03*
X612200Y565150D03*
X612200Y577850D03*
D13*
X136050Y425450D03*
X156050Y425450D03*
D14*
X60900Y450850D03*
X60900Y438150D03*
X60900Y425450D03*
X60900Y412750D03*
X116900Y412750D03*
X116900Y425450D03*
X116900Y438150D03*
X116900Y450850D03*
D13*
X301150Y425450D03*
X321150Y425450D03*
D14*
X226000Y450850D03*
X226000Y438150D03*
X226000Y425450D03*
X226000Y412750D03*
X282000Y412750D03*
X282000Y425450D03*
X282000Y438150D03*
X282000Y450850D03*
D13*
X466250Y425450D03*
X486250Y425450D03*
D14*
X391100Y450850D03*
X391100Y438150D03*
X391100Y425450D03*
X391100Y412750D03*
X447100Y412750D03*
X447100Y425450D03*
X447100Y438150D03*
X447100Y450850D03*
D13*
X631350Y425450D03*
X651350Y425450D03*
D14*
X556200Y450850D03*
X556200Y438150D03*
X556200Y425450D03*
X556200Y412750D03*
X612200Y412750D03*
X612200Y425450D03*
X612200Y438150D03*
X612200Y450850D03*
D13*
X136050Y298450D03*
X156050Y298450D03*
D14*
X60900Y323850D03*
X60900Y311150D03*
X60900Y298450D03*
X60900Y285750D03*
X116900Y285750D03*
X116900Y298450D03*
X116900Y311150D03*
X116900Y323850D03*
D13*
X301150Y298450D03*
X321150Y298450D03*
D14*
X226000Y323850D03*
X226000Y311150D03*
X226000Y298450D03*
X226000Y285750D03*
X282000Y285750D03*
X282000Y298450D03*
X282000Y311150D03*
X282000Y323850D03*
D13*
X466250Y298450D03*
X486250Y298450D03*
D14*
X391100Y323850D03*
X391100Y311150D03*
X391100Y298450D03*
X391100Y285750D03*
X447100Y285750D03*
X447100Y298450D03*
X447100Y311150D03*
X447100Y323850D03*
D13*
X631350Y298450D03*
X651350Y298450D03*
D14*
X556200Y323850D03*
X556200Y311150D03*
X556200Y298450D03*
X556200Y285750D03*
X612200Y285750D03*
X612200Y298450D03*
X612200Y311150D03*
X612200Y323850D03*
D13*
X136050Y171450D03*
X156050Y171450D03*
D14*
X60900Y196850D03*
X60900Y184150D03*
X60900Y171450D03*
X60900Y158750D03*
X116900Y158750D03*
X116900Y171450D03*
X116900Y184150D03*
X116900Y196850D03*
D13*
X301150Y171450D03*
X321150Y171450D03*
D14*
X226000Y196850D03*
X226000Y184150D03*
X226000Y171450D03*
X226000Y158750D03*
X282000Y158750D03*
X282000Y171450D03*
X282000Y184150D03*
X282000Y196850D03*
D13*
X466250Y171450D03*
X486250Y171450D03*
D14*
X391100Y196850D03*
X391100Y184150D03*
X391100Y171450D03*
X391100Y158750D03*
X447100Y158750D03*
X447100Y171450D03*
X447100Y184150D03*
X447100Y196850D03*
D13*
X631350Y171450D03*
X651350Y171450D03*
D14*
X556200Y196850D03*
X556200Y184150D03*
X556200Y171450D03*
X556200Y158750D03*
X612200Y158750D03*
X612200Y171450D03*
X612200Y184150D03*
X612200Y196850D03*
D15*
X134112Y553212D02*
X117348Y553212D01*
X116900Y552450D01*
X134112Y553212D02*
X136050Y552450D01*
X134112Y427482D02*
X117348Y427482D01*
X116900Y425450D01*
X134112Y427482D02*
X136050Y425450D01*
X282194Y553212D02*
X298958Y553212D01*
X282194Y553212D02*
X282000Y552450D01*
X298958Y553212D02*
X301150Y552450D01*
X298958Y427482D02*
X282194Y427482D01*
X282000Y425450D01*
X298958Y427482D02*
X301150Y425450D01*
X449834Y553212D02*
X463804Y553212D01*
X449834Y553212D02*
X447100Y552450D01*
X463804Y553212D02*
X466250Y552450D01*
X614680Y553212D02*
X628650Y553212D01*
X614680Y553212D02*
X612200Y552450D01*
X628650Y553212D02*
X631350Y552450D01*
X628650Y427482D02*
X614680Y427482D01*
X612200Y425450D01*
X628650Y427482D02*
X631350Y425450D01*
X463804Y427482D02*
X449834Y427482D01*
X447100Y425450D01*
X463804Y427482D02*
X466250Y425450D01*
X134112Y298958D02*
X117348Y298958D01*
X116900Y298450D01*
X134112Y298958D02*
X136050Y298450D01*
X134112Y173228D02*
X117348Y173228D01*
X116900Y171450D01*
X134112Y173228D02*
X136050Y171450D01*
X282194Y298958D02*
X298958Y298958D01*
X282194Y298958D02*
X282000Y298450D01*
X298958Y298958D02*
X301150Y298450D01*
X298958Y173228D02*
X282194Y173228D01*
X282000Y171450D01*
X298958Y173228D02*
X301150Y171450D01*
X449834Y173228D02*
X463804Y173228D01*
X449834Y173228D02*
X447100Y171450D01*
X463804Y173228D02*
X466250Y171450D01*
X463804Y298958D02*
X449834Y298958D01*
X447100Y298450D01*
X463804Y298958D02*
X466250Y298450D01*
X614680Y298958D02*
X628650Y298958D01*
X614680Y298958D02*
X612200Y298450D01*
X628650Y298958D02*
X631350Y298450D01*
X628650Y173228D02*
X614680Y173228D01*
X612200Y171450D01*
X628650Y173228D02*
X631350Y171450D01*
X536448Y170434D02*
X488950Y170434D01*
X486250Y171450D01*
X653796Y170434D02*
X692912Y170434D01*
X723646Y139700D01*
X653796Y170434D02*
X651350Y171450D01*
X723646Y139700D02*
X723900Y137000D01*
X651002Y427482D02*
X651002Y550418D01*
X651002Y427482D02*
X651350Y425450D01*
X651002Y550418D02*
X651350Y552450D01*
X500126Y298958D02*
X488950Y298958D01*
X500126Y298958D02*
X533654Y332486D01*
X561594Y332486D01*
X600710Y293370D01*
X600710Y282194D01*
X606298Y276606D01*
X634238Y276606D01*
X635635Y278003D02*
X653796Y296164D01*
X635635Y278003D02*
X634238Y276606D01*
X488950Y298958D02*
X486250Y298450D01*
X651350Y298450D02*
X653796Y296164D01*
X651002Y298958D02*
X651002Y424688D01*
X651350Y425450D01*
X651002Y298958D02*
X651350Y298450D01*
X651002Y262636D02*
X651002Y173228D01*
X651002Y262636D02*
X635635Y278003D01*
X651002Y173228D02*
X651350Y171450D01*
X156464Y427482D02*
X156464Y550418D01*
X156464Y427482D02*
X156050Y425450D01*
X156464Y550418D02*
X156050Y552450D01*
X156464Y170434D02*
X156464Y64262D01*
X164846Y55880D01*
X164846Y44704D01*
X159258Y39116D01*
X148082Y39116D01*
X139700Y47498D01*
X139700Y120142D01*
X97790Y162052D01*
X97790Y240284D01*
X153670Y296164D01*
X156050Y171450D02*
X156464Y170434D01*
X153670Y296164D02*
X156050Y298450D01*
X156464Y298958D02*
X156464Y424688D01*
X156050Y425450D01*
X156464Y298958D02*
X156050Y298450D01*
X321310Y296164D02*
X321310Y173228D01*
X321150Y171450D01*
X321310Y296164D02*
X321150Y298450D01*
X321310Y427482D02*
X321310Y444246D01*
X363220Y486156D01*
X427482Y486156D01*
X486156Y427482D01*
X321310Y427482D02*
X321150Y425450D01*
X486156Y427482D02*
X486250Y425450D01*
X318516Y514096D02*
X318516Y550418D01*
X305943Y501523D02*
X259842Y455422D01*
X305943Y501523D02*
X308737Y504317D01*
X318516Y514096D01*
X259842Y455422D02*
X259842Y419100D01*
X273812Y405130D01*
X298958Y405130D01*
X318516Y424688D01*
X318516Y550418D02*
X321150Y552450D01*
X321150Y425450D02*
X318516Y424688D01*
X480568Y550418D02*
X486156Y550418D01*
X480568Y550418D02*
X427482Y497332D01*
X332486Y497332D01*
X326898Y491744D01*
X321310Y491744D01*
X308737Y504317D01*
X486156Y550418D02*
X486250Y552450D01*
X329692Y298958D02*
X321310Y298958D01*
X368808Y338074D02*
X435864Y405130D01*
X368808Y338074D02*
X329692Y298958D01*
X435864Y405130D02*
X466598Y405130D01*
X486156Y424688D01*
X321310Y298958D02*
X321150Y298450D01*
X486156Y424688D02*
X486250Y425450D01*
X164846Y553212D02*
X156464Y553212D01*
X164846Y553212D02*
X220726Y609092D01*
X226314Y609092D01*
X271018Y564388D01*
X271018Y536448D01*
X305943Y501523D01*
X156464Y553212D02*
X156050Y552450D01*
D16*
X536448Y170434D03*
X368808Y338074D03*
D15*
X114554Y567182D02*
X111760Y567182D01*
X89408Y589534D01*
X89408Y648208D01*
X78232Y659384D01*
X114554Y567182D02*
X116900Y565150D01*
X78232Y659384D02*
X76200Y660400D01*
X117348Y542036D02*
X142494Y542036D01*
X145288Y544830D01*
X145288Y617474D01*
X103378Y659384D01*
X117348Y542036D02*
X116900Y539750D01*
X103378Y659384D02*
X101600Y660400D01*
X276606Y567182D02*
X279400Y567182D01*
X276606Y567182D02*
X206756Y637032D01*
X150876Y637032D01*
X128524Y659384D01*
X279400Y567182D02*
X282000Y565150D01*
X128524Y659384D02*
X127000Y660400D01*
X282194Y542036D02*
X307340Y542036D01*
X310134Y544830D01*
X310134Y564388D01*
X231902Y642620D01*
X170434Y642620D01*
X153670Y659384D01*
X282194Y542036D02*
X282000Y539750D01*
X153670Y659384D02*
X152400Y660400D01*
X441452Y567182D02*
X447040Y567182D01*
X441452Y567182D02*
X435864Y572770D01*
X435864Y648208D01*
X444246Y656590D01*
X444246Y690118D01*
X430276Y704088D01*
X203962Y704088D01*
X189992Y690118D01*
X189992Y673354D01*
X178816Y662178D01*
X447040Y567182D02*
X447100Y565150D01*
X178816Y662178D02*
X177800Y660400D01*
X441452Y542036D02*
X447040Y542036D01*
X441452Y542036D02*
X402336Y581152D01*
X402336Y620268D01*
X396748Y625856D01*
X257048Y625856D01*
X234696Y648208D01*
X215138Y648208D01*
X203962Y659384D01*
X447040Y542036D02*
X447100Y539750D01*
X203962Y659384D02*
X203200Y660400D01*
X606298Y567182D02*
X611886Y567182D01*
X606298Y567182D02*
X581152Y592328D01*
X338074Y634238D02*
X257048Y634238D01*
X229108Y662178D01*
X611886Y567182D02*
X612200Y565150D01*
X229108Y662178D02*
X228600Y660400D01*
D16*
X581152Y592328D03*
X338074Y634238D03*
D15*
X589534Y542036D02*
X611886Y542036D01*
X419100Y611886D02*
X388366Y642620D01*
X271018Y642620D01*
X254254Y659384D01*
X611886Y542036D02*
X612200Y539750D01*
X254254Y659384D02*
X254000Y660400D01*
D16*
X589534Y542036D03*
X419100Y611886D03*
D15*
X114554Y438658D02*
X83820Y469392D01*
X83820Y634238D01*
X64262Y653796D01*
X64262Y673354D01*
X75438Y684530D01*
X114554Y438658D02*
X116900Y438150D01*
X75438Y684530D02*
X76200Y685800D01*
X89408Y438658D02*
X114554Y413512D01*
X116900Y412750D01*
D16*
X89408Y438658D03*
D15*
X282194Y438658D02*
X307340Y438658D01*
X360426Y491744D01*
X444246Y491744D01*
X497332Y544830D01*
X497332Y628650D01*
X469392Y656590D01*
X469392Y690118D01*
X449834Y709676D01*
X150876Y709676D01*
X127000Y685800D01*
X282194Y438658D02*
X282000Y438150D01*
X268224Y424688D02*
X279400Y413512D01*
X268224Y424688D02*
X268224Y452628D01*
X279400Y413512D02*
X282000Y412750D01*
D16*
X268224Y452628D03*
D15*
X419100Y438658D02*
X447040Y438658D01*
X419100Y438658D02*
X379984Y477774D01*
X366014Y477774D01*
X447040Y438658D02*
X447100Y438150D01*
D16*
X366014Y477774D03*
D15*
X444246Y413512D02*
X447040Y413512D01*
X444246Y413512D02*
X427482Y430276D01*
X396748Y505714D02*
X379984Y505714D01*
X360426Y525272D01*
X447040Y413512D02*
X447100Y412750D01*
D16*
X427482Y430276D03*
X396748Y505714D03*
X360426Y525272D03*
D15*
X595122Y438658D02*
X611886Y438658D01*
X324104Y651002D02*
X298958Y651002D01*
X296164Y648208D01*
X282194Y648208D01*
X257048Y673354D01*
X240284Y673354D01*
X229108Y684530D01*
X611886Y438658D02*
X612200Y438150D01*
X229108Y684530D02*
X228600Y685800D01*
D16*
X595122Y438658D03*
X324104Y651002D03*
D15*
X609092Y413512D02*
X611886Y413512D01*
X609092Y413512D02*
X581152Y441452D01*
X581152Y572770D01*
X354838Y690118D02*
X352044Y690118D01*
X349250Y692912D01*
X259842Y692912D01*
X254254Y687324D01*
X611886Y413512D02*
X612200Y412750D01*
X254000Y685800D02*
X254254Y687324D01*
D16*
X581152Y572770D03*
X354838Y690118D03*
D15*
X122936Y312928D02*
X117348Y312928D01*
X122936Y312928D02*
X148082Y338074D01*
X335280Y558800D02*
X393954Y617474D01*
X117348Y312928D02*
X116900Y311150D01*
D16*
X148082Y338074D03*
X335280Y558800D03*
X393954Y617474D03*
D15*
X114554Y287782D02*
X111760Y287782D01*
X97790Y301752D01*
X97790Y419100D01*
X78232Y438658D01*
X78232Y631444D01*
X58674Y651002D01*
X58674Y684530D01*
X72644Y698500D01*
X106172Y698500D01*
X114554Y690118D01*
X114554Y681736D01*
X122936Y673354D01*
X156464Y673354D01*
X164846Y664972D01*
X164846Y656590D01*
X173228Y648208D01*
X181610Y648208D01*
X189992Y656590D01*
X189992Y664972D01*
X198374Y673354D01*
X206756Y673354D01*
X215138Y681736D01*
X215138Y690118D01*
X223520Y698500D01*
X377190Y698500D01*
X385572Y690118D01*
X114554Y287782D02*
X116900Y285750D01*
D16*
X385572Y690118D03*
D15*
X287782Y312928D02*
X282194Y312928D01*
X287782Y312928D02*
X379984Y405130D01*
X282194Y312928D02*
X282000Y311150D01*
D16*
X379984Y405130D03*
D15*
X279400Y287782D02*
X276606Y287782D01*
X271018Y293370D01*
X271018Y326898D01*
X326898Y382778D01*
X346456Y382778D01*
X516890Y452628D02*
X516890Y625856D01*
X279400Y287782D02*
X282000Y285750D01*
D16*
X346456Y382778D03*
X516890Y452628D03*
X516890Y625856D03*
D15*
X452628Y312928D02*
X449834Y312928D01*
X452628Y312928D02*
X469392Y329692D01*
X469392Y382778D01*
X508508Y421894D01*
X508508Y659384D01*
X449834Y312928D02*
X447100Y311150D01*
X508508Y659384D02*
X508000Y660400D01*
X472186Y287782D02*
X449834Y287782D01*
X472186Y287782D02*
X474980Y290576D01*
X474980Y379984D01*
X530860Y435864D01*
X530860Y659384D01*
X449834Y287782D02*
X447100Y285750D01*
X530860Y659384D02*
X533400Y660400D01*
X609092Y312928D02*
X611886Y312928D01*
X609092Y312928D02*
X572770Y349250D01*
X572770Y645414D01*
X558800Y659384D01*
X611886Y312928D02*
X612200Y311150D01*
X558800Y659384D02*
X558800Y660400D01*
X614680Y287782D02*
X637032Y287782D01*
X642620Y293370D01*
X642620Y603504D01*
X586740Y659384D01*
X614680Y287782D02*
X612200Y285750D01*
X586740Y659384D02*
X584200Y660400D01*
X122936Y184404D02*
X117348Y184404D01*
X122936Y184404D02*
X170434Y231902D01*
X170434Y318516D02*
X162052Y326898D01*
X162052Y413512D01*
X187198Y438658D01*
X187198Y564388D01*
X223520Y600710D01*
X284988Y662178D02*
X310134Y687324D01*
X346456Y687324D01*
X352044Y681736D01*
X402336Y681736D01*
X406400Y685800D01*
X117348Y184404D02*
X116900Y184150D01*
D16*
X170434Y231902D03*
X170434Y318516D03*
X223520Y600710D03*
X284988Y662178D03*
D15*
X106172Y167640D02*
X114554Y159258D01*
X106172Y167640D02*
X106172Y220726D01*
X170434Y329692D02*
X170434Y413512D01*
X192786Y435864D01*
X192786Y556006D01*
X212344Y575564D01*
X293370Y656590D02*
X318516Y656590D01*
X321310Y659384D01*
X388366Y659384D01*
X402336Y673354D01*
X419100Y673354D01*
X430276Y684530D01*
X116900Y158750D02*
X114554Y159258D01*
X430276Y684530D02*
X431800Y685800D01*
D16*
X106172Y220726D03*
X170434Y329692D03*
X212344Y575564D03*
X293370Y656590D03*
D15*
X287782Y184404D02*
X282194Y184404D01*
X287782Y184404D02*
X312928Y209550D01*
X354838Y312928D02*
X438658Y396748D01*
X282194Y184404D02*
X282000Y184150D01*
D16*
X312928Y209550D03*
X354838Y312928D03*
X438658Y396748D03*
D15*
X326898Y159258D02*
X282194Y159258D01*
X326898Y159258D02*
X335280Y167640D01*
X335280Y282194D01*
X452628Y399542D01*
X477774Y399542D01*
X502920Y424688D01*
X502920Y648208D01*
X494538Y656590D01*
X494538Y673354D01*
X483362Y684530D01*
X282194Y159258D02*
X282000Y158750D01*
X483362Y684530D02*
X482600Y685800D01*
X483362Y184404D02*
X449834Y184404D01*
X483362Y184404D02*
X533654Y234696D01*
X449834Y184404D02*
X447100Y184150D01*
D16*
X533654Y234696D03*
D15*
X469392Y156464D02*
X449834Y156464D01*
X469392Y156464D02*
X572770Y53086D01*
X572770Y44704D01*
X578358Y39116D01*
X586740Y39116D01*
X597916Y27940D01*
X597916Y19558D01*
X603504Y13970D01*
X623062Y13970D01*
X720852Y111760D01*
X734822Y111760D01*
X751586Y128524D01*
X751586Y511302D01*
X589534Y673354D01*
X544830Y673354D01*
X533654Y684530D01*
X447100Y158750D02*
X449834Y156464D01*
X533654Y684530D02*
X533400Y685800D01*
X606298Y189992D02*
X611886Y184404D01*
X606298Y189992D02*
X603504Y189992D01*
X558800Y234696D01*
X558800Y273812D01*
X611886Y184404D02*
X612200Y184150D01*
D16*
X558800Y273812D03*
D15*
X606298Y164846D02*
X611886Y159258D01*
X606298Y164846D02*
X603504Y164846D01*
X597916Y170434D01*
X597916Y184404D01*
X611886Y159258D02*
X612200Y158750D01*
D16*
X597916Y184404D03*
D15*
X58674Y564388D02*
X39116Y564388D01*
X33528Y558800D01*
X33528Y92202D01*
X100584Y25146D01*
X58674Y564388D02*
X60900Y565150D01*
X101600Y25400D02*
X100584Y25146D01*
X58674Y542036D02*
X55880Y542036D01*
X41910Y556006D01*
X27940Y564388D02*
X33528Y569976D01*
X27940Y564388D02*
X27940Y81026D01*
X94996Y13970D01*
X114554Y13970D01*
X125730Y25146D01*
X60900Y539750D02*
X58674Y542036D01*
X127000Y25400D02*
X125730Y25146D01*
D16*
X41910Y556006D03*
X33528Y569976D03*
D15*
X198374Y539242D02*
X223520Y564388D01*
X198374Y539242D02*
X198374Y379984D01*
X178816Y360426D01*
X178816Y304546D01*
X106172Y231902D01*
X223520Y564388D02*
X226000Y565150D01*
D16*
X106172Y231902D03*
D15*
X226314Y474980D02*
X226314Y539242D01*
X226314Y474980D02*
X251460Y449834D01*
X251460Y254254D01*
X189992Y192786D01*
X189992Y39116D01*
X178816Y27940D01*
X226314Y539242D02*
X226000Y539750D01*
X178816Y27940D02*
X177800Y25400D01*
X371602Y564388D02*
X388366Y564388D01*
X371602Y564388D02*
X326898Y519684D01*
X195580Y366014D02*
X195580Y298958D01*
X117348Y220726D01*
X388366Y564388D02*
X391100Y565150D01*
D16*
X326898Y519684D03*
X195580Y366014D03*
X117348Y220726D03*
D15*
X363220Y539242D02*
X388366Y539242D01*
X363220Y539242D02*
X324104Y500126D01*
X220726Y366014D02*
X220726Y343662D01*
X388366Y539242D02*
X391100Y539750D01*
D16*
X324104Y500126D03*
X220726Y366014D03*
X220726Y343662D03*
D15*
X556006Y463804D02*
X556006Y539242D01*
X405130Y312928D02*
X405130Y254254D01*
X360426Y209550D01*
X360426Y148082D02*
X360426Y108966D01*
X279400Y27940D01*
X556006Y539242D02*
X556200Y539750D01*
X279400Y27940D02*
X279400Y25400D01*
D16*
X556006Y463804D03*
X405130Y312928D03*
X360426Y209550D03*
X360426Y148082D03*
D15*
X553212Y564388D02*
X556006Y564388D01*
X553212Y564388D02*
X539242Y550418D01*
X539242Y435864D01*
X416306Y312928D02*
X416306Y254254D01*
X346456Y184404D01*
X346456Y134112D01*
X265430Y53086D01*
X265430Y39116D01*
X254254Y27940D01*
X556006Y564388D02*
X556200Y565150D01*
X254254Y27940D02*
X254000Y25400D01*
D16*
X539242Y435864D03*
X416306Y312928D03*
D15*
X67056Y435864D02*
X61468Y435864D01*
X67056Y435864D02*
X78232Y424688D01*
X78232Y340868D02*
X86614Y332486D01*
X86614Y67056D01*
X100584Y53086D01*
X61468Y435864D02*
X60900Y438150D01*
X100584Y53086D02*
X101600Y50800D01*
D16*
X78232Y424688D03*
X78232Y340868D03*
D15*
X61468Y368808D02*
X61468Y410718D01*
X61468Y368808D02*
X92202Y338074D01*
X92202Y86614D01*
X125730Y53086D01*
X61468Y410718D02*
X60900Y412750D01*
X125730Y53086D02*
X127000Y50800D01*
X220726Y435864D02*
X223520Y435864D01*
X220726Y435864D02*
X203962Y419100D01*
X203962Y237490D01*
X145288Y178816D01*
X145288Y58674D01*
X150876Y53086D01*
X223520Y435864D02*
X226000Y438150D01*
X150876Y53086D02*
X152400Y50800D01*
X223520Y379984D02*
X223520Y410718D01*
X223520Y379984D02*
X209550Y366014D01*
X209550Y234696D01*
X178816Y203962D01*
X178816Y53086D01*
X223520Y410718D02*
X226000Y412750D01*
X178816Y53086D02*
X177800Y50800D01*
X368808Y435864D02*
X388366Y435864D01*
X368808Y435864D02*
X257048Y324104D01*
X257048Y251460D01*
X203962Y198374D01*
X203962Y53086D01*
X388366Y435864D02*
X391100Y438150D01*
X203962Y53086D02*
X203200Y50800D01*
X388366Y382778D02*
X388366Y410718D01*
X388366Y382778D02*
X310134Y304546D01*
X310134Y290576D01*
X223520Y203962D01*
X217932Y203962D01*
X215138Y201168D01*
X215138Y64262D01*
X228600Y50800D01*
X388366Y410718D02*
X391100Y412750D01*
X550418Y435864D02*
X556006Y435864D01*
X550418Y435864D02*
X525272Y410718D01*
X556006Y435864D02*
X556200Y438150D01*
D16*
X525272Y410718D03*
D15*
X556006Y410718D02*
X483362Y338074D01*
X433070Y287782D02*
X433070Y262636D01*
X352044Y181610D01*
X352044Y125730D01*
X279400Y53086D01*
X556006Y410718D02*
X556200Y412750D01*
X279400Y53086D02*
X279400Y50800D01*
D16*
X483362Y338074D03*
X433070Y287782D03*
D15*
X58674Y310134D02*
X55880Y310134D01*
X39116Y293370D01*
X39116Y94996D01*
X94996Y39116D01*
X131318Y39116D01*
X139700Y30734D01*
X139700Y19558D01*
X145288Y13970D01*
X419100Y13970D01*
X430276Y25146D01*
X60900Y311150D02*
X58674Y310134D01*
X430276Y25146D02*
X431800Y25400D01*
X58674Y209550D02*
X58674Y284988D01*
X58674Y209550D02*
X47498Y198374D01*
X47498Y176022D01*
X352044Y39116D02*
X444246Y39116D01*
X455422Y27940D01*
X60900Y285750D02*
X58674Y284988D01*
X455422Y27940D02*
X457200Y25400D01*
D16*
X47498Y176022D03*
X352044Y39116D03*
D15*
X215138Y301752D02*
X223520Y310134D01*
X215138Y301752D02*
X215138Y229108D01*
X223520Y310134D02*
X226000Y311150D01*
D16*
X215138Y229108D03*
D15*
X226314Y271018D02*
X226314Y284988D01*
X226000Y285750D01*
D16*
X226314Y271018D03*
D15*
X374396Y310134D02*
X388366Y310134D01*
X374396Y310134D02*
X368808Y304546D01*
X368808Y290576D01*
X388366Y310134D02*
X391100Y311150D01*
D16*
X368808Y290576D03*
D15*
X391160Y284988D02*
X391160Y251460D01*
X391160Y284988D02*
X391100Y285750D01*
D16*
X391160Y251460D03*
D15*
X519684Y310134D02*
X556006Y310134D01*
X519684Y310134D02*
X413512Y203962D01*
X382778Y203962D01*
X374396Y195580D01*
X374396Y150876D01*
X455422Y69850D01*
X505714Y69850D01*
X519684Y55880D01*
X519684Y47498D01*
X528066Y39116D01*
X569976Y39116D01*
X583946Y25146D01*
X556006Y310134D02*
X556200Y311150D01*
X584200Y25400D02*
X583946Y25146D01*
X642620Y201168D02*
X558800Y284988D01*
X642620Y201168D02*
X642620Y58674D01*
X611886Y27940D01*
X558800Y284988D02*
X556200Y285750D01*
X611886Y27940D02*
X609600Y25400D01*
X72644Y184404D02*
X61468Y184404D01*
X60900Y184150D01*
D16*
X72644Y184404D03*
D15*
X78232Y156464D02*
X61468Y156464D01*
X60900Y158750D01*
D16*
X78232Y156464D03*
D15*
X226314Y184404D02*
X268224Y184404D01*
X226314Y184404D02*
X226000Y184150D01*
D16*
X268224Y184404D03*
D15*
X257048Y156464D02*
X226314Y156464D01*
X349250Y64262D02*
X494538Y64262D01*
X508000Y50800D01*
X226314Y156464D02*
X226000Y158750D01*
D16*
X257048Y156464D03*
X349250Y64262D03*
D15*
X385572Y181610D02*
X388366Y181610D01*
X385572Y181610D02*
X379984Y176022D01*
X379984Y153670D01*
X458216Y75438D01*
X508508Y75438D01*
X530860Y53086D01*
X391100Y184150D02*
X388366Y181610D01*
X530860Y53086D02*
X533400Y50800D01*
X433070Y156464D02*
X391160Y156464D01*
X433070Y156464D02*
X508508Y81026D01*
X530860Y81026D01*
X558800Y53086D01*
X391160Y156464D02*
X391100Y158750D01*
X558800Y53086D02*
X558800Y50800D01*
X556006Y181610D02*
X550418Y181610D01*
X544830Y176022D01*
X544830Y92202D01*
X583946Y53086D01*
X556006Y181610D02*
X556200Y184150D01*
X583946Y53086D02*
X584200Y50800D01*
X558800Y103378D02*
X558800Y156464D01*
X558800Y103378D02*
X609092Y53086D01*
X558800Y156464D02*
X556200Y158750D01*
X609092Y53086D02*
X609600Y50800D01*
X407924Y173228D02*
X391160Y173228D01*
X507111Y272415D02*
X530860Y296164D01*
X507111Y272415D02*
X407924Y173228D01*
X530860Y296164D02*
X556006Y296164D01*
X391160Y173228D02*
X391100Y171450D01*
X556006Y296164D02*
X556200Y298450D01*
X558800Y173228D02*
X561594Y173228D01*
X565785Y177419D02*
X567182Y178816D01*
X565785Y177419D02*
X561594Y173228D01*
X567182Y178816D02*
X567182Y212344D01*
X507111Y272415D01*
X558800Y173228D02*
X556200Y171450D01*
X565785Y177419D02*
X581152Y162052D01*
X561594Y427482D02*
X558800Y427482D01*
X561594Y427482D02*
X567182Y433070D01*
X567182Y544830D01*
X558800Y553212D01*
X558800Y427482D02*
X556200Y425450D01*
X556200Y552450D02*
X558800Y553212D01*
X614680Y673354D02*
X645414Y673354D01*
X614680Y673354D02*
X589534Y698500D01*
X528066Y698500D01*
X519684Y690118D01*
X519684Y681736D01*
X528066Y673354D01*
X536448Y673354D01*
X544830Y664972D01*
X544830Y603504D01*
X567182Y581152D01*
X567182Y558800D01*
X561594Y553212D01*
X645414Y673354D02*
X647700Y673100D01*
X561594Y553212D02*
X556200Y552450D01*
X72644Y173228D02*
X61468Y173228D01*
X72644Y173228D02*
X81026Y181610D01*
X81026Y282194D01*
X71247Y291973D02*
X67056Y296164D01*
X71247Y291973D02*
X81026Y282194D01*
X67056Y296164D02*
X61468Y296164D01*
X61468Y173228D02*
X60900Y171450D01*
X61468Y296164D02*
X60900Y298450D01*
X50292Y416306D02*
X58674Y424688D01*
X50292Y416306D02*
X50292Y349250D01*
X71247Y328295D02*
X72644Y326898D01*
X71247Y328295D02*
X50292Y349250D01*
X72644Y326898D02*
X72644Y293370D01*
X58674Y424688D02*
X60900Y425450D01*
X72644Y293370D02*
X71247Y291973D01*
X64262Y550418D02*
X61468Y550418D01*
X64262Y550418D02*
X72644Y542036D01*
X72644Y477774D01*
X50292Y455422D01*
X50292Y430276D01*
X55880Y424688D01*
X61468Y550418D02*
X60900Y552450D01*
X60900Y425450D02*
X55880Y424688D01*
X226314Y170434D02*
X254254Y170434D01*
X273812Y150876D01*
X326898Y150876D01*
X340868Y164846D01*
X340868Y251460D01*
X384175Y294767D02*
X388366Y298958D01*
X384175Y294767D02*
X340868Y251460D01*
X226000Y171450D02*
X226314Y170434D01*
X388366Y298958D02*
X391100Y298450D01*
X231902Y304546D02*
X226314Y298958D01*
X231902Y304546D02*
X234696Y304546D01*
X237490Y307340D01*
X237490Y366014D02*
X237490Y416306D01*
X237490Y366014D02*
X237490Y307340D01*
X237490Y416306D02*
X226314Y427482D01*
X226314Y298958D02*
X226000Y298450D01*
X226000Y425450D02*
X226314Y427482D01*
X223520Y550418D02*
X220726Y550418D01*
X215138Y544830D01*
X215138Y477774D01*
X237490Y455422D01*
X237490Y430276D01*
X231902Y424688D01*
X223520Y550418D02*
X226000Y552450D01*
X226000Y425450D02*
X231902Y424688D01*
X371602Y427482D02*
X388366Y427482D01*
X391100Y425450D01*
X388366Y553212D02*
X371602Y553212D01*
X388366Y553212D02*
X391100Y552450D01*
X243078Y366014D02*
X237490Y366014D01*
X377190Y301752D02*
X384175Y294767D01*
X78232Y329692D02*
X72644Y329692D01*
X71247Y328295D01*
D16*
X581152Y162052D03*
X371602Y427482D03*
X371602Y553212D03*
X243078Y366014D03*
X377190Y301752D03*
X78232Y329692D03*
M02*
