M48
;GenerationSoftware,Autodesk,EAGLE,8.6.3*%
;CreationDate,2018-04-24T10:21:06Z*%
FMAT,2
ICI,OFF
METRIC,TZ,000.000
T4C0.350
T3C1.016
T2C1.020
T1C2.997
%
G90
M71
T1
X77090Y10700
X72390Y13700
X72390Y7700
T2
X60960Y2540
X58420Y5080
X58420Y2540
X55880Y5080
X55880Y2540
X53340Y5080
X53340Y2540
X50800Y5080
X50800Y2540
X48260Y5080
X48260Y2540
X45720Y5080
X45720Y2540
X43180Y5080
X43180Y2540
X27940Y5080
X27940Y2540
X25400Y5080
X25400Y2540
X22860Y5080
X22860Y2540
X20320Y5080
X20320Y2540
X17780Y5080
X17780Y2540
X15240Y5080
X15240Y2540
X12700Y5080
X12700Y2540
X10160Y5080
X10160Y2540
X7620Y66040
X60960Y5080
X7620Y68580
X58420Y68580
X58420Y66040
X55880Y68580
X55880Y66040
X53340Y68580
X53340Y66040
X50800Y68580
X50800Y66040
X48260Y68580
X48260Y66040
X45720Y68580
X45720Y66040
X43180Y68580
X43180Y66040
X40640Y68580
X40640Y66040
X25400Y68580
X25400Y66040
X22860Y68580
X22860Y66040
X20320Y68580
X20320Y66040
X17780Y68580
X17780Y66040
X15240Y68580
X15240Y66040
X12700Y68580
X12700Y66040
X10160Y68580
X10160Y66040
T3
X64770Y67310
X31750Y67310
T4
X58115Y16205
X37160Y42748
X37160Y55321
X53645Y17043
X37719Y30175
X7823Y32969
X34925Y6426
X25705Y15646
X26822Y18440
X7823Y15646
X7264Y18440
X39116Y25146
X36881Y29058
X22631Y27102
X21514Y22911
X35204Y3912
X4750Y17602
X43307Y28778
X48336Y33807
X52527Y41072
X7823Y34087
X7823Y42469
X41631Y31293
X53924Y43586
X36043Y14808
X36043Y20955
X40513Y31293
X55601Y46380
X22073Y34366
X22073Y36601
X32410Y50013
X11735Y22073
X19558Y36601
X32690Y51968
X10617Y23190
X3353Y56998
X4191Y55601
X59792Y18440
X55880Y27381
X53365Y23470
X43866Y39675
X35484Y31293
X31293Y20955
X29337Y65659
X21234Y57556
X17043Y32969
X10617Y22073
X28499Y66218
X22352Y60071
X17043Y31852
X17043Y23190
X51689Y62586
X51689Y45263
X34646Y38278
X37998Y40513
X38557Y69012
X39395Y61747
X33528Y55880
X14808Y33807
X35484Y69012
X58115Y57277
X32410Y65100
X59512Y43866
X36043Y52527
X39675Y50571
X42748Y43028
X36601Y47777
X26822Y45263
X8941Y43866
X41910Y61189
X58953Y54204
X33807Y63424
X58115Y59233
X36881Y33807
X24308Y36601
M30