G04 EAGLE Gerber X2 export*
%TF.Part,Single*%
%TF.FileFunction,Soldermask,Bot,1*%
%TF.FilePolarity,Negative*%
%TF.GenerationSoftware,Autodesk,EAGLE,8.6.3*%
%TF.CreationDate,2018-04-24T10:21:06Z*%
G75*
%MOMM*%
%FSLAX34Y34*%
%LPD*%
%AMOC8*
5,1,8,0,0,1.08239X$1,22.5*%
G01*
%ADD10C,1.733200*%
%ADD11C,4.521200*%
%ADD12C,2.082800*%
%ADD13C,0.959600*%


D10*
X76200Y660400D03*
X76200Y685800D03*
X101600Y660400D03*
X101600Y685800D03*
X127000Y660400D03*
X127000Y685800D03*
X152400Y660400D03*
X152400Y685800D03*
X177800Y660400D03*
X177800Y685800D03*
X203200Y660400D03*
X203200Y685800D03*
X228600Y660400D03*
X228600Y685800D03*
X254000Y660400D03*
X254000Y685800D03*
X406400Y660400D03*
X406400Y685800D03*
X431800Y660400D03*
X431800Y685800D03*
X457200Y660400D03*
X457200Y685800D03*
X482600Y660400D03*
X482600Y685800D03*
X508000Y660400D03*
X508000Y685800D03*
X533400Y660400D03*
X533400Y685800D03*
X558800Y660400D03*
X558800Y685800D03*
X584200Y660400D03*
X584200Y685800D03*
D11*
X723900Y137000D03*
X723900Y77000D03*
X770900Y107000D03*
D10*
X101600Y25400D03*
X101600Y50800D03*
X127000Y25400D03*
X127000Y50800D03*
X152400Y25400D03*
X152400Y50800D03*
X177800Y25400D03*
X177800Y50800D03*
X203200Y25400D03*
X203200Y50800D03*
X228600Y25400D03*
X228600Y50800D03*
X254000Y25400D03*
X254000Y50800D03*
X279400Y25400D03*
X279400Y50800D03*
X431800Y25400D03*
X431800Y50800D03*
X457200Y25400D03*
X457200Y50800D03*
X482600Y25400D03*
X482600Y50800D03*
X508000Y25400D03*
X508000Y50800D03*
X533400Y25400D03*
X533400Y50800D03*
X558800Y25400D03*
X558800Y50800D03*
X584200Y25400D03*
X584200Y50800D03*
X609600Y25400D03*
X609600Y50800D03*
D12*
X647700Y673100D03*
X317500Y673100D03*
D13*
X536448Y170434D03*
X368808Y338074D03*
X581152Y592328D03*
X338074Y634238D03*
X589534Y542036D03*
X419100Y611886D03*
X89408Y438658D03*
X268224Y452628D03*
X366014Y477774D03*
X427482Y430276D03*
X396748Y505714D03*
X360426Y525272D03*
X595122Y438658D03*
X324104Y651002D03*
X581152Y572770D03*
X354838Y690118D03*
X148082Y338074D03*
X335280Y558800D03*
X393954Y617474D03*
X385572Y690118D03*
X379984Y405130D03*
X346456Y382778D03*
X516890Y452628D03*
X516890Y625856D03*
X170434Y231902D03*
X170434Y318516D03*
X223520Y600710D03*
X284988Y662178D03*
X106172Y220726D03*
X170434Y329692D03*
X212344Y575564D03*
X293370Y656590D03*
X312928Y209550D03*
X354838Y312928D03*
X438658Y396748D03*
X533654Y234696D03*
X558800Y273812D03*
X597916Y184404D03*
X41910Y556006D03*
X33528Y569976D03*
X106172Y231902D03*
X326898Y519684D03*
X195580Y366014D03*
X117348Y220726D03*
X324104Y500126D03*
X220726Y366014D03*
X220726Y343662D03*
X556006Y463804D03*
X405130Y312928D03*
X360426Y209550D03*
X360426Y148082D03*
X539242Y435864D03*
X416306Y312928D03*
X78232Y424688D03*
X78232Y340868D03*
X525272Y410718D03*
X483362Y338074D03*
X433070Y287782D03*
X47498Y176022D03*
X352044Y39116D03*
X215138Y229108D03*
X226314Y271018D03*
X368808Y290576D03*
X391160Y251460D03*
X72644Y184404D03*
X78232Y156464D03*
X268224Y184404D03*
X257048Y156464D03*
X349250Y64262D03*
X581152Y162052D03*
X371602Y427482D03*
X371602Y553212D03*
X243078Y366014D03*
X377190Y301752D03*
X78232Y329692D03*
M02*
