G04 EAGLE Gerber X2 export*
%TF.Part,Single*%
%TF.FileFunction,Copper,L1,Top,Mixed*%
%TF.FilePolarity,Positive*%
%TF.GenerationSoftware,Autodesk,EAGLE,8.6.3*%
%TF.CreationDate,2018-02-26T22:29:53Z*%
G75*
%MOMM*%
%FSLAX34Y34*%
%LPD*%
%AMOC8*
5,1,8,0,0,1.08239X$1,22.5*%
G01*
%ADD10C,1.320800*%
%ADD11C,1.530000*%
%ADD12C,4.318000*%
%ADD13C,1.879600*%
%ADD14C,0.609600*%
%ADD15C,0.756400*%


D10*
X50800Y310896D02*
X50800Y324104D01*
X76200Y324104D02*
X76200Y310896D01*
X203200Y310896D02*
X203200Y324104D01*
X228600Y324104D02*
X228600Y310896D01*
X101600Y310896D02*
X101600Y324104D01*
X127000Y324104D02*
X127000Y310896D01*
X177800Y310896D02*
X177800Y324104D01*
X152400Y324104D02*
X152400Y310896D01*
X228600Y387096D02*
X228600Y400304D01*
X203200Y400304D02*
X203200Y387096D01*
X177800Y387096D02*
X177800Y400304D01*
X152400Y400304D02*
X152400Y387096D01*
X127000Y387096D02*
X127000Y400304D01*
X101600Y400304D02*
X101600Y387096D01*
X76200Y387096D02*
X76200Y400304D01*
X50800Y400304D02*
X50800Y387096D01*
X317500Y324104D02*
X317500Y310896D01*
X342900Y310896D02*
X342900Y324104D01*
X469900Y324104D02*
X469900Y310896D01*
X495300Y310896D02*
X495300Y324104D01*
X368300Y324104D02*
X368300Y310896D01*
X393700Y310896D02*
X393700Y324104D01*
X444500Y324104D02*
X444500Y310896D01*
X419100Y310896D02*
X419100Y324104D01*
X495300Y387096D02*
X495300Y400304D01*
X469900Y400304D02*
X469900Y387096D01*
X444500Y387096D02*
X444500Y400304D01*
X419100Y400304D02*
X419100Y387096D01*
X393700Y387096D02*
X393700Y400304D01*
X368300Y400304D02*
X368300Y387096D01*
X342900Y387096D02*
X342900Y400304D01*
X317500Y400304D02*
X317500Y387096D01*
X50800Y197104D02*
X50800Y183896D01*
X76200Y183896D02*
X76200Y197104D01*
X203200Y197104D02*
X203200Y183896D01*
X228600Y183896D02*
X228600Y197104D01*
X101600Y197104D02*
X101600Y183896D01*
X127000Y183896D02*
X127000Y197104D01*
X177800Y197104D02*
X177800Y183896D01*
X152400Y183896D02*
X152400Y197104D01*
X228600Y260096D02*
X228600Y273304D01*
X203200Y273304D02*
X203200Y260096D01*
X177800Y260096D02*
X177800Y273304D01*
X152400Y273304D02*
X152400Y260096D01*
X127000Y260096D02*
X127000Y273304D01*
X101600Y273304D02*
X101600Y260096D01*
X76200Y260096D02*
X76200Y273304D01*
X50800Y273304D02*
X50800Y260096D01*
X317500Y197104D02*
X317500Y183896D01*
X342900Y183896D02*
X342900Y197104D01*
X469900Y197104D02*
X469900Y183896D01*
X495300Y183896D02*
X495300Y197104D01*
X368300Y197104D02*
X368300Y183896D01*
X393700Y183896D02*
X393700Y197104D01*
X444500Y197104D02*
X444500Y183896D01*
X419100Y183896D02*
X419100Y197104D01*
X495300Y260096D02*
X495300Y273304D01*
X469900Y273304D02*
X469900Y260096D01*
X444500Y260096D02*
X444500Y273304D01*
X419100Y273304D02*
X419100Y260096D01*
X393700Y260096D02*
X393700Y273304D01*
X368300Y273304D02*
X368300Y260096D01*
X342900Y260096D02*
X342900Y273304D01*
X317500Y273304D02*
X317500Y260096D01*
D11*
X241300Y25400D03*
X241300Y50800D03*
X266700Y25400D03*
X266700Y50800D03*
X292100Y25400D03*
X292100Y50800D03*
X317500Y25400D03*
X317500Y50800D03*
X342900Y25400D03*
X342900Y50800D03*
X368300Y25400D03*
X368300Y50800D03*
X393700Y25400D03*
X393700Y50800D03*
X419100Y25400D03*
X419100Y50800D03*
X228600Y495300D03*
X228600Y469900D03*
X254000Y495300D03*
X254000Y469900D03*
X279400Y495300D03*
X279400Y469900D03*
X304800Y495300D03*
X304800Y469900D03*
X330200Y495300D03*
X330200Y469900D03*
X355600Y495300D03*
X355600Y469900D03*
X381000Y495300D03*
X381000Y469900D03*
X406400Y495300D03*
X406400Y469900D03*
D12*
X101600Y137000D03*
X101600Y77000D03*
X148600Y107000D03*
D13*
X76200Y469900D03*
X431800Y127000D03*
X457200Y127000D03*
D14*
X53340Y190500D02*
X53340Y266700D01*
X53340Y190500D02*
X50800Y190500D01*
X53340Y266700D02*
X53340Y316230D01*
X50800Y317500D01*
X50800Y266700D02*
X53340Y266700D01*
X53340Y320040D02*
X53340Y392430D01*
X50800Y393700D01*
X53340Y320040D02*
X50800Y317500D01*
X320040Y320040D02*
X320040Y392430D01*
X317500Y393700D01*
X320040Y320040D02*
X317500Y317500D01*
X457200Y125730D02*
X434340Y102870D01*
X407670Y102870D01*
X320040Y190500D01*
X457200Y127000D02*
X457200Y125730D01*
X320040Y190500D02*
X317500Y190500D01*
X102870Y297180D02*
X102870Y316230D01*
X102870Y297180D02*
X114300Y285750D01*
X114300Y179070D01*
X152400Y140970D01*
X179070Y140970D01*
X240030Y80010D01*
X240030Y53340D01*
X102870Y316230D02*
X101600Y317500D01*
X240030Y53340D02*
X241300Y50800D01*
X179070Y289560D02*
X179070Y316230D01*
X179070Y289560D02*
X190500Y278130D01*
X190500Y160020D01*
X266700Y83820D01*
X266700Y50800D01*
X179070Y316230D02*
X177800Y317500D01*
X179070Y381000D02*
X179070Y392430D01*
X179070Y381000D02*
X224790Y335280D01*
X236220Y335280D01*
X281940Y289560D01*
X281940Y60960D01*
X292100Y50800D01*
X179070Y392430D02*
X177800Y393700D01*
X118110Y411480D02*
X102870Y396240D01*
X118110Y411480D02*
X182880Y411480D01*
X190500Y403860D01*
X190500Y381000D01*
X228600Y342900D01*
X240030Y342900D01*
X297180Y285750D01*
X297180Y80010D01*
X316230Y60960D01*
X316230Y53340D01*
X101600Y393700D02*
X102870Y396240D01*
X316230Y53340D02*
X317500Y50800D01*
X369570Y102870D02*
X369570Y121920D01*
X369570Y102870D02*
X419100Y53340D01*
X419100Y50800D01*
D15*
X369570Y121920D03*
D14*
X365760Y289560D02*
X365760Y316230D01*
X365760Y289560D02*
X354330Y278130D01*
X354330Y251460D01*
X304800Y201930D01*
X304800Y91440D01*
X342900Y53340D01*
X365760Y316230D02*
X368300Y317500D01*
X342900Y53340D02*
X342900Y50800D01*
X179070Y156210D02*
X179070Y190500D01*
X179070Y156210D02*
X228600Y106680D01*
X179070Y190500D02*
X177800Y190500D01*
D15*
X228600Y106680D03*
D14*
X217170Y148590D02*
X217170Y228600D01*
X217170Y148590D02*
X270510Y95250D01*
X293370Y68580D02*
X304800Y57150D01*
X304800Y38100D01*
X292100Y25400D01*
D15*
X217170Y228600D03*
X270510Y95250D03*
X293370Y68580D03*
D14*
X99060Y266700D02*
X99060Y289560D01*
X87630Y300990D01*
X87630Y327660D01*
X95250Y335280D01*
X160020Y335280D01*
X163830Y331470D01*
X163830Y205740D01*
X327660Y114300D02*
X381000Y60960D01*
X381000Y45720D01*
X373380Y38100D01*
X331470Y38100D01*
X320040Y26670D01*
X101600Y266700D02*
X99060Y266700D01*
X317500Y25400D02*
X320040Y26670D01*
D15*
X163830Y205740D03*
X327660Y114300D03*
D14*
X445770Y213360D02*
X445770Y266700D01*
X445770Y213360D02*
X457200Y201930D01*
X457200Y148590D01*
X472440Y133350D01*
X472440Y83820D01*
X426720Y38100D01*
X407670Y38100D01*
X396240Y26670D01*
X444500Y266700D02*
X445770Y266700D01*
X396240Y26670D02*
X393700Y25400D01*
X369570Y213360D02*
X369570Y266700D01*
X369570Y213360D02*
X381000Y201930D01*
X381000Y144780D01*
X411480Y114300D01*
X369570Y266700D02*
X368300Y266700D01*
D15*
X411480Y114300D03*
D14*
X205740Y190500D02*
X205740Y243840D01*
X217170Y255270D01*
X217170Y278130D01*
X190500Y304800D01*
X190500Y327660D01*
X144780Y373380D01*
X99060Y373380D01*
X87630Y384810D01*
X87630Y403860D01*
X194310Y510540D01*
X236220Y510540D01*
X251460Y495300D01*
X205740Y190500D02*
X203200Y190500D01*
X251460Y495300D02*
X254000Y495300D01*
X472440Y243840D02*
X472440Y190500D01*
X472440Y243840D02*
X483870Y255270D01*
X483870Y449580D01*
X415290Y518160D01*
X381000Y518160D01*
X358140Y495300D01*
X469900Y190500D02*
X472440Y190500D01*
X358140Y495300D02*
X355600Y495300D01*
X381000Y381000D02*
X354330Y354330D01*
X381000Y381000D02*
X381000Y422910D01*
X419100Y461010D01*
X419100Y483870D01*
X407670Y495300D01*
X406400Y495300D01*
D15*
X354330Y354330D03*
D14*
X430530Y304800D02*
X468630Y266700D01*
X430530Y304800D02*
X430530Y491490D01*
X411480Y510540D01*
X396240Y510540D01*
X381000Y495300D01*
X468630Y266700D02*
X469900Y266700D01*
X76200Y317500D02*
X76200Y369570D01*
X64770Y381000D01*
X64770Y407670D01*
X175260Y518160D01*
X251460Y518160D01*
X266700Y502920D01*
X266700Y464820D01*
X259080Y457200D01*
X240030Y457200D01*
X228600Y468630D01*
X228600Y469900D01*
X259080Y449580D02*
X203200Y393700D01*
X259080Y449580D02*
X262890Y449580D01*
X281940Y468630D01*
X279400Y469900D01*
X342900Y369570D02*
X342900Y317500D01*
X342900Y369570D02*
X331470Y381000D01*
X331470Y468630D01*
X330200Y469900D01*
X342900Y407670D02*
X342900Y393700D01*
X342900Y407670D02*
X403860Y468630D01*
X406400Y469900D01*
X76200Y393700D02*
X76200Y384810D01*
X99060Y361950D01*
X247650Y411480D02*
X304800Y468630D01*
X304800Y469900D01*
D15*
X99060Y361950D03*
X247650Y411480D03*
D14*
X495300Y243840D02*
X495300Y190500D01*
X495300Y243840D02*
X506730Y255270D01*
X506730Y304800D01*
X495300Y316230D01*
X495300Y317500D01*
X228600Y243840D02*
X228600Y190500D01*
X228600Y243840D02*
X240030Y255270D01*
X240030Y304800D01*
X228600Y316230D01*
X228600Y317500D01*
X186690Y118110D02*
X175260Y118110D01*
X160020Y133350D01*
X102870Y133350D01*
X101600Y137000D01*
X495300Y317500D02*
X495300Y369570D01*
X506730Y381000D01*
X506730Y438150D01*
X419100Y525780D01*
X160020Y525780D01*
X38100Y403860D01*
X38100Y179070D01*
X80010Y137160D01*
X99060Y137160D01*
X101600Y137000D01*
D15*
X186690Y118110D03*
D14*
X152400Y396240D02*
X129540Y396240D01*
X127000Y393700D01*
X152400Y393700D02*
X152400Y396240D01*
X152400Y320040D02*
X129540Y320040D01*
X127000Y317500D01*
X152400Y317500D02*
X152400Y320040D01*
X152400Y190500D02*
X129540Y190500D01*
X129540Y266700D02*
X152400Y266700D01*
X129540Y266700D02*
X129540Y190500D01*
X127000Y190500D01*
X129540Y266700D02*
X129540Y316230D01*
X127000Y317500D01*
X127000Y266700D02*
X129540Y266700D01*
X396240Y190500D02*
X419100Y190500D01*
X419100Y140970D01*
X430530Y129540D01*
X431800Y127000D01*
X419100Y396240D02*
X396240Y396240D01*
X393700Y393700D01*
X419100Y393700D02*
X419100Y396240D01*
X419100Y266700D02*
X396240Y266700D01*
X396240Y320040D02*
X419100Y320040D01*
X419100Y317500D01*
X396240Y316230D02*
X396240Y266700D01*
X396240Y316230D02*
X393700Y317500D01*
X396240Y320040D02*
X396240Y335280D01*
X396240Y392430D01*
X393700Y393700D01*
X396240Y320040D02*
X393700Y317500D01*
X396240Y266700D02*
X396240Y190500D01*
X393700Y190500D01*
X393700Y266700D02*
X396240Y266700D01*
X236220Y373380D02*
X228600Y373380D01*
X236220Y373380D02*
X312420Y297180D01*
X346710Y297180D01*
X354330Y304800D01*
X354330Y327660D01*
X361950Y335280D01*
X396240Y335280D01*
X102870Y247650D02*
X68580Y247650D01*
D15*
X228600Y373380D03*
X68580Y247650D03*
X102870Y247650D03*
M02*
