M48
;GenerationSoftware,Autodesk,EAGLE,8.6.3*%
;CreationDate,2018-02-26T22:29:53Z*%
FMAT,2
ICI,OFF
METRIC,TZ,000.000
T5C0.350
T4C0.813
T3C1.016
T2C1.020
T1C2.997
%
G90
M71
T1
X10160Y13700
X10160Y7700
X14860Y10700
T2
X24130Y2540
X22860Y49530
X25400Y49530
X40640Y46990
X40640Y49530
X38100Y46990
X38100Y49530
X35560Y46990
X35560Y49530
X33020Y46990
X33020Y49530
X30480Y46990
X30480Y49530
X27940Y46990
X27940Y49530
X25400Y46990
X24130Y5080
X22860Y46990
X26670Y2540
X41910Y5080
X41910Y2540
X39370Y5080
X39370Y2540
X36830Y5080
X36830Y2540
X34290Y5080
X34290Y2540
X31750Y5080
X31750Y2540
X29210Y5080
X29210Y2540
X26670Y5080
T3
X43180Y12700
X7620Y46990
X45720Y12700
T4
X41910Y31750
X49530Y39370
X46990Y39370
X44450Y39370
X41910Y39370
X39370Y39370
X36830Y39370
X34290Y39370
X31750Y39370
X5080Y19050
X7620Y19050
X20320Y19050
X22860Y19050
X10160Y19050
X12700Y19050
X17780Y19050
X15240Y19050
X22860Y26670
X20320Y26670
X17780Y26670
X15240Y26670
X12700Y26670
X10160Y26670
X7620Y26670
X5080Y26670
X31750Y19050
X34290Y19050
X46990Y19050
X49530Y19050
X36830Y19050
X39370Y19050
X44450Y19050
X41910Y19050
X49530Y26670
X46990Y26670
X44450Y26670
X41910Y26670
X39370Y26670
X36830Y26670
X34290Y26670
X31750Y26670
X44450Y31750
X39370Y31750
X36830Y31750
X49530Y31750
X46990Y31750
X34290Y31750
X31750Y31750
X5080Y39370
X7620Y39370
X10160Y39370
X12700Y39370
X15240Y39370
X17780Y39370
X20320Y39370
X22860Y39370
X15240Y31750
X17780Y31750
X12700Y31750
X10160Y31750
X22860Y31750
X20320Y31750
X7620Y31750
X5080Y31750
T5
X10287Y24765
X6858Y24765
X22860Y37338
X18669Y11811
X24765Y41148
X9906Y36195
X35433Y35433
X41148Y11430
X32766Y11430
X16383Y20574
X29337Y6858
X27051Y9525
X21717Y22860
X22860Y10668
X36957Y12192
M30